<svg width="54" height="36" viewBox="0 0 54 36" fill="none" xmlns="http://www.w3.org/2000/svg">
<path fill-rule="evenodd" clip-rule="evenodd" d="M52.3266 18.5545L30.4272 34.9503C28.4242 36.3499 25.4864 36.3499 23.4834 34.9503L1.71747 18.5545C-0.285526 17.0549 -0.686126 15.0554 1.31687 13.5558L2.11807 12.9559C3.85401 11.8562 5.85701 11.5563 7.45941 12.856C12.8007 16.8549 18.2756 20.9539 23.617 24.9529C25.62 26.3525 28.5577 26.3525 30.4272 24.9529C35.902 20.9539 41.2434 16.8549 46.5847 12.856C48.1871 11.5563 50.1901 11.8562 51.926 12.9559L52.7272 13.5558C54.7302 15.0554 54.1961 17.0549 52.3266 18.5545Z" fill="#DDDDDD"/>
<path fill-rule="evenodd" clip-rule="evenodd" d="M52.3266 6.5545L30.4272 22.9503C28.4242 24.3499 25.4864 24.3499 23.4834 22.9503L1.71747 6.5545C-0.285526 5.05489 -0.686126 3.0554 1.31687 1.55579L2.11807 0.955947C3.85401 -0.14377 5.85701 -0.443692 7.45941 0.855972C12.8007 4.85494 18.2756 8.95388 23.617 12.9529C25.62 14.3525 28.5577 14.3525 30.4272 12.9529C35.902 8.95388 41.2434 4.85494 46.5847 0.855972C48.1871 -0.443692 50.1901 -0.14377 51.926 0.955947L52.7272 1.55579C54.7302 3.0554 54.1961 5.05489 52.3266 6.5545Z" fill="#DDDDDD"/>
</svg>
